<?xml version="1.0" encoding="iso-8859-1"?>
<!-- Generator: Adobe Illustrator 19.0.0, SVG Export Plug-In . SVG Version: 6.00 Build 0)  -->
<svg version="1.1" id="Capa_1" xmlns="http://www.w3.org/2000/svg" xmlns:xlink="http://www.w3.org/1999/xlink" x="0px" y="0px"
	 viewBox="0 0 512 512" style="enable-background:new 0 0 512 512;" xml:space="preserve">
<g>
	<g>
		<path d="M437.019,74.981C388.668,26.629,324.38,0,255.999,0S123.332,26.629,74.981,74.981S0,187.619,0,255.999
			c0,68.38,26.629,132.667,74.981,181.02C123.332,485.371,187.62,512,255.999,512s132.667-26.629,181.02-74.981S512,324.38,512,256
			S485.371,123.332,437.019,74.981z M240.141,32.286v93.958c-59.427,7.22-106.677,54.47-113.897,113.898H32.286
			C40.082,129.085,129.085,40.083,240.141,32.286z M158.273,240.141c6.777-41.912,39.956-75.09,81.868-81.868v81.868H158.273z
			 M240.141,271.858v81.869c-41.912-6.777-75.091-39.956-81.868-81.869H240.141z M240.141,479.714
			c-111.056-7.796-200.059-96.798-207.855-207.855h93.958c7.22,59.427,54.47,106.679,113.898,113.897V479.714z M271.858,32.286
			c111.057,7.797,200.06,96.799,207.856,207.855h-93.958c-7.22-59.427-54.47-106.677-113.899-113.897V32.286z M271.858,240.141
			v-81.868c41.913,6.777,75.091,39.956,81.869,81.868H271.858z M353.727,271.858c-6.777,41.912-39.956,75.091-81.869,81.869v-81.869
			H353.727z M271.858,479.715v-93.958c59.427-7.22,106.679-54.471,113.899-113.897h93.958
			C471.918,382.915,382.915,471.917,271.858,479.715z"/>
	</g>
</g>
<g>
</g>
<g>
</g>
<g>
</g>
<g>
</g>
<g>
</g>
<g>
</g>
<g>
</g>
<g>
</g>
<g>
</g>
<g>
</g>
<g>
</g>
<g>
</g>
<g>
</g>
<g>
</g>
<g>
</g>
</svg>
