<?xml version="1.0"?>
<svg xmlns="http://www.w3.org/2000/svg" xmlns:xlink="http://www.w3.org/1999/xlink" xmlns:svgjs="http://svgjs.com/svgjs" version="1.1" width="512" height="512" x="0" y="0" viewBox="0 0 512 512" style="enable-background:new 0 0 512 512" xml:space="preserve" class=""><g>
<g xmlns="http://www.w3.org/2000/svg">
	<g>
		<g>
			<path d="M503.467,187.733H409.6v-76.8c0-0.089-0.011-0.176-0.013-0.265c-0.004-0.111-0.009-0.222-0.017-0.333     c-0.024-0.343-0.063-0.682-0.126-1.012c-0.004-0.022-0.006-0.044-0.01-0.066c-0.075-0.376-0.18-0.739-0.302-1.095     c-0.022-0.065-0.047-0.128-0.07-0.192c-0.129-0.349-0.275-0.689-0.447-1.014c-0.005-0.009-0.008-0.018-0.013-0.027     c-0.182-0.342-0.391-0.667-0.617-0.979c-0.039-0.054-0.08-0.108-0.121-0.161c-0.246-0.324-0.508-0.634-0.796-0.92L304.734,2.535     c-0.287-0.291-0.6-0.554-0.926-0.801c-0.051-0.038-0.101-0.077-0.152-0.114c-0.627-0.454-1.318-0.821-2.058-1.092     c-0.044-0.016-0.088-0.033-0.132-0.048c-0.713-0.248-1.467-0.402-2.252-0.451c-0.077-0.005-0.154-0.009-0.232-0.012     C298.877,0.012,298.773,0,298.667,0H8.533C3.814,0,0,3.823,0,8.533v494.933C0,508.177,3.814,512,8.533,512h392.533     c4.719,0,8.533-3.823,8.533-8.533V409.6h93.867c4.719,0,8.533-3.823,8.533-8.533v-204.8     C512,191.556,508.186,187.733,503.467,187.733z M380.467,102.4H307.2V29.133L380.467,102.4z M392.533,494.933H17.067V17.067     h273.067v93.867c0,4.71,3.814,8.533,8.533,8.533h93.867v68.267H102.4c-4.719,0-8.533,3.823-8.533,8.533v204.8     c0,4.71,3.814,8.533,8.533,8.533h290.133V494.933z M494.933,392.533h-93.867H110.933V204.8h290.133h93.867V392.533z" fill="#ffffff" data-original="#000000" style="" class=""/>
			<path d="M324.267,238.933c14.114,0,25.6,11.486,25.6,25.6c0,4.71,3.814,8.533,8.533,8.533s8.533-3.823,8.533-8.533     c0-23.526-19.14-42.667-42.667-42.667c-23.526,0-42.667,19.14-42.667,42.667c0,23.526,19.14,42.667,42.667,42.667     c14.114,0,25.6,11.486,25.6,25.6c0,14.114-11.486,25.6-25.6,25.6s-25.6-11.486-25.6-25.6c0-4.71-3.814-8.533-8.533-8.533     s-8.533,3.823-8.533,8.533c0,23.526,19.14,42.667,42.667,42.667c23.526,0,42.667-19.14,42.667-42.667     c0-23.526-19.14-42.667-42.667-42.667c-14.114,0-25.6-11.486-25.6-25.6S310.153,238.933,324.267,238.933z" fill="#ffffff" data-original="#000000" style="" class=""/>
			<path d="M435.2,307.2c14.114,0,25.6,11.486,25.6,25.6c0,14.114-11.486,25.6-25.6,25.6s-25.6-11.486-25.6-25.6     c0-4.71-3.814-8.533-8.533-8.533c-4.719,0-8.533,3.823-8.533,8.533c0,23.526,19.14,42.667,42.667,42.667     c23.526,0,42.667-19.14,42.667-42.667c0-23.526-19.14-42.667-42.667-42.667c-14.114,0-25.6-11.486-25.6-25.6     s11.486-25.6,25.6-25.6s25.6,11.486,25.6,25.6c0,4.71,3.814,8.533,8.533,8.533s8.533-3.823,8.533-8.533     c0-23.526-19.14-42.667-42.667-42.667c-23.526,0-42.667,19.14-42.667,42.667C392.533,288.06,411.674,307.2,435.2,307.2z" fill="#ffffff" data-original="#000000" style="" class=""/>
			<path d="M242.142,345.301C231.441,353.869,218.53,358.4,204.8,358.4c-32.93,0-59.733-26.795-59.733-59.733     s26.803-59.733,59.733-59.733c13.73,0,26.641,4.531,37.325,13.099c3.695,2.961,9.062,2.364,11.998-1.323     c2.953-3.669,2.364-9.045-1.314-11.989c-13.551-10.871-30.601-16.853-48.009-16.853c-42.351,0-76.8,34.458-76.8,76.8     s34.449,76.8,76.8,76.8c17.399,0,34.458-5.982,48.009-16.853c3.686-2.944,4.275-8.311,1.323-11.989     C251.196,342.955,245.837,342.357,242.142,345.301z" fill="#ffffff" data-original="#000000" style="" class=""/>
		</g>
	</g>
</g>
<g xmlns="http://www.w3.org/2000/svg">
</g>
<g xmlns="http://www.w3.org/2000/svg">
</g>
<g xmlns="http://www.w3.org/2000/svg">
</g>
<g xmlns="http://www.w3.org/2000/svg">
</g>
<g xmlns="http://www.w3.org/2000/svg">
</g>
<g xmlns="http://www.w3.org/2000/svg">
</g>
<g xmlns="http://www.w3.org/2000/svg">
</g>
<g xmlns="http://www.w3.org/2000/svg">
</g>
<g xmlns="http://www.w3.org/2000/svg">
</g>
<g xmlns="http://www.w3.org/2000/svg">
</g>
<g xmlns="http://www.w3.org/2000/svg">
</g>
<g xmlns="http://www.w3.org/2000/svg">
</g>
<g xmlns="http://www.w3.org/2000/svg">
</g>
<g xmlns="http://www.w3.org/2000/svg">
</g>
<g xmlns="http://www.w3.org/2000/svg">
</g>
</g></svg>
