<?xml version="1.0"?>
<svg xmlns="http://www.w3.org/2000/svg" xmlns:xlink="http://www.w3.org/1999/xlink" xmlns:svgjs="http://svgjs.com/svgjs" version="1.1" width="512" height="512" x="0" y="0" viewBox="0 0 512 512" style="enable-background:new 0 0 512 512" xml:space="preserve" class=""><g>
<g xmlns="http://www.w3.org/2000/svg">
	<g>
		<g>
			<path d="M486.4,0H25.6C11.486,0,0,11.486,0,25.6v51.2v409.6C0,500.514,11.486,512,25.6,512h460.8c14.114,0,25.6-11.486,25.6-25.6     V76.8V25.6C512,11.486,500.514,0,486.4,0z M17.067,25.6c0-4.702,3.831-8.533,8.533-8.533h460.8c4.702,0,8.533,3.831,8.533,8.533     v42.667H17.067V25.6z M494.933,486.4c0,4.702-3.831,8.533-8.533,8.533H25.6c-4.702,0-8.533-3.831-8.533-8.533V85.333h477.867     V486.4z" fill="#ffffff" data-original="#000000" style="" class=""/>
			<circle cx="42.667" cy="42.667" r="8.533" fill="#ffffff" data-original="#000000" style="" class=""/>
			<circle cx="76.8" cy="42.667" r="8.533" fill="#ffffff" data-original="#000000" style="" class=""/>
			<circle cx="110.933" cy="42.667" r="8.533" fill="#ffffff" data-original="#000000" style="" class=""/>
			<path d="M78.387,363.358c1.664,2.33,4.292,3.575,6.955,3.575c1.715,0,3.447-0.521,4.949-1.587     c3.84-2.739,4.727-8.073,1.988-11.904l-39.125-54.775l39.125-54.775c2.739-3.831,1.852-9.165-1.988-11.904     c-3.823-2.739-9.165-1.852-11.904,1.988l-42.667,59.733c-2.116,2.97-2.116,6.946,0,9.916L78.387,363.358z" fill="#ffffff" data-original="#000000" style="" class=""/>
			<path d="M421.709,365.346c1.502,1.067,3.234,1.587,4.949,1.587c2.662,0,5.291-1.246,6.955-3.575l42.667-59.733     c2.116-2.97,2.116-6.946,0-9.916l-42.667-59.733c-2.739-3.84-8.081-4.727-11.904-1.988c-3.84,2.739-4.727,8.073-1.988,11.904     l39.125,54.775l-39.125,54.775C416.981,357.274,417.869,362.607,421.709,365.346z" fill="#ffffff" data-original="#000000" style="" class=""/>
			<path d="M110.933,341.333c4.71,0,8.533-3.823,8.533-8.533v-25.6H153.6v25.6c0,4.71,3.823,8.533,8.533,8.533     c4.71,0,8.533-3.823,8.533-8.533v-68.267c0-4.71-3.823-8.533-8.533-8.533c-4.71,0-8.533,3.823-8.533,8.533v25.6h-34.133v-25.6     c0-4.71-3.823-8.533-8.533-8.533s-8.533,3.823-8.533,8.533V332.8C102.4,337.51,106.223,341.333,110.933,341.333z" fill="#ffffff" data-original="#000000" style="" class=""/>
			<path d="M196.267,273.067h17.067V332.8c0,4.71,3.823,8.533,8.533,8.533c4.71,0,8.533-3.823,8.533-8.533v-59.733h17.067     c4.71,0,8.533-3.823,8.533-8.533c0-4.71-3.823-8.533-8.533-8.533h-51.2c-4.71,0-8.533,3.823-8.533,8.533     C187.733,269.244,191.556,273.067,196.267,273.067z" fill="#ffffff" data-original="#000000" style="" class=""/>
			<path d="M281.6,341.333c4.71,0,8.533-3.823,8.533-8.533v-42.667l10.24,13.653c3.217,4.301,10.436,4.301,13.653,0l10.24-13.653     V332.8c0,4.71,3.823,8.533,8.533,8.533c4.71,0,8.533-3.823,8.533-8.533v-68.267c0-3.678-2.347-6.938-5.837-8.098     c-3.473-1.152-7.322,0.043-9.523,2.978L307.2,284.442l-18.773-25.028c-2.202-2.935-6.042-4.139-9.523-2.978     c-3.49,1.161-5.837,4.42-5.837,8.098V332.8C273.067,337.51,276.89,341.333,281.6,341.333z" fill="#ffffff" data-original="#000000" style="" class=""/>
			<path d="M366.933,341.333h34.133c4.71,0,8.533-3.823,8.533-8.533c0-4.71-3.823-8.533-8.533-8.533h-25.6v-59.733     c0-4.71-3.823-8.533-8.533-8.533s-8.533,3.823-8.533,8.533V332.8C358.4,337.51,362.223,341.333,366.933,341.333z" fill="#ffffff" data-original="#000000" style="" class=""/>
		</g>
	</g>
</g>
<g xmlns="http://www.w3.org/2000/svg">
</g>
<g xmlns="http://www.w3.org/2000/svg">
</g>
<g xmlns="http://www.w3.org/2000/svg">
</g>
<g xmlns="http://www.w3.org/2000/svg">
</g>
<g xmlns="http://www.w3.org/2000/svg">
</g>
<g xmlns="http://www.w3.org/2000/svg">
</g>
<g xmlns="http://www.w3.org/2000/svg">
</g>
<g xmlns="http://www.w3.org/2000/svg">
</g>
<g xmlns="http://www.w3.org/2000/svg">
</g>
<g xmlns="http://www.w3.org/2000/svg">
</g>
<g xmlns="http://www.w3.org/2000/svg">
</g>
<g xmlns="http://www.w3.org/2000/svg">
</g>
<g xmlns="http://www.w3.org/2000/svg">
</g>
<g xmlns="http://www.w3.org/2000/svg">
</g>
<g xmlns="http://www.w3.org/2000/svg">
</g>
</g></svg>
