<?xml version="1.0" standalone="no"?>
<!DOCTYPE svg PUBLIC "-//W3C//DTD SVG 20010904//EN"
 "http://www.w3.org/TR/2001/REC-SVG-20010904/DTD/svg10.dtd">
<svg version="1.0" xmlns="http://www.w3.org/2000/svg"
 width="64.000000pt" height="64.000000pt" viewBox="0 0 64.000000 64.000000"
 preserveAspectRatio="xMidYMid meet">

<g transform="translate(0.000000,64.000000) scale(0.100000,-0.100000)"
fill="#ffffff" stroke="none">
<path d="M280 620 c0 -11 5 -20 10 -20 6 0 10 -11 10 -25 0 -19 -9 -28 -47
-45 -44 -19 -113 -75 -113 -91 0 -4 7 -10 16 -13 10 -4 31 7 55 27 73 63 170
74 257 31 204 -102 153 -401 -75 -439 -60 -10 -139 16 -187 60 -33 30 -42 34
-53 22 -12 -11 -11 -17 6 -38 29 -38 115 -80 174 -86 86 -9 159 18 223 81 90
91 108 215 47 327 -30 56 -97 114 -144 124 -24 5 -29 12 -29 36 0 16 5 29 10
29 6 0 10 9 10 20 0 18 -7 20 -85 20 -78 0 -85 -2 -85 -20z m100 -45 c0 -18
-5 -25 -20 -25 -15 0 -20 7 -20 25 0 18 5 25 20 25 15 0 20 -7 20 -25z"/>
<path d="M430 375 c-23 -24 -43 -35 -62 -35 -34 0 -68 -32 -68 -64 0 -25 41
-66 67 -66 26 0 65 49 59 74 -4 17 4 31 34 61 30 30 37 42 29 52 -16 19 -21
17 -59 -22z m-52 -98 c2 -10 -3 -17 -12 -17 -18 0 -29 16 -21 31 9 14 29 6 33
-14z"/>
<path d="M40 360 c0 -19 7 -20 95 -20 88 0 95 1 95 20 0 19 -7 20 -95 20 -88
0 -95 -1 -95 -20z"/>
<path d="M0 280 c0 -19 7 -20 95 -20 88 0 95 1 95 20 0 19 -7 20 -95 20 -88 0
-95 -1 -95 -20z"/>
<path d="M40 190 c0 -19 7 -20 95 -20 88 0 95 1 95 20 0 19 -7 20 -95 20 -88
0 -95 -1 -95 -20z"/>
</g>
</svg>
