<?xml version="1.0"?>
<svg xmlns="http://www.w3.org/2000/svg" xmlns:xlink="http://www.w3.org/1999/xlink" xmlns:svgjs="http://svgjs.com/svgjs" version="1.1" width="512" height="512" x="0" y="0" viewBox="0 0 512.007 512.007" style="enable-background:new 0 0 512 512" xml:space="preserve" class=""><g>
<g xmlns="http://www.w3.org/2000/svg" transform="translate(0 -1)">
	<g>
		<g>
			<path d="M435.204,308.207c14.114,0,25.6,11.486,25.6,25.6c0,14.114-11.486,25.6-25.6,25.6s-25.6-11.486-25.6-25.6     c0-4.71-3.823-8.533-8.533-8.533s-8.533,3.823-8.533,8.533c0,23.526,19.14,42.667,42.667,42.667     c23.526,0,42.667-19.14,42.667-42.667c0-23.526-19.14-42.667-42.667-42.667c-14.114,0-25.6-11.486-25.6-25.6     c0-14.114,11.486-25.6,25.6-25.6s25.6,11.486,25.6,25.6c0,4.71,3.823,8.533,8.533,8.533s8.533-3.823,8.533-8.533     c0-23.526-19.14-42.667-42.667-42.667c-23.526,0-42.667,19.14-42.667,42.667C392.537,289.067,411.677,308.207,435.204,308.207z" fill="#ffffff" data-original="#000000" style="" class=""/>
			<path d="M503.47,188.741h-93.867v-76.8c0-0.089-0.011-0.176-0.013-0.265c-0.004-0.112-0.009-0.222-0.017-0.334     c-0.024-0.339-0.063-0.673-0.125-1c-0.005-0.027-0.007-0.054-0.012-0.081c-0.074-0.371-0.178-0.731-0.299-1.083     c-0.025-0.073-0.052-0.144-0.079-0.216c-0.123-0.33-0.262-0.651-0.423-0.961c-0.013-0.026-0.024-0.053-0.038-0.078     c-0.177-0.331-0.379-0.645-0.597-0.948c-0.05-0.069-0.101-0.137-0.153-0.205c-0.232-0.303-0.476-0.596-0.745-0.865L304.703,3.508     c-0.263-0.263-0.55-0.503-0.845-0.73c-0.082-0.063-0.163-0.125-0.247-0.185c-0.288-0.205-0.585-0.398-0.897-0.566     c-0.069-0.037-0.142-0.067-0.212-0.102c-0.256-0.129-0.518-0.245-0.788-0.348c-0.114-0.044-0.227-0.087-0.342-0.125     c-0.31-0.104-0.626-0.195-0.952-0.263c-0.12-0.025-0.242-0.039-0.363-0.059c-0.235-0.039-0.472-0.07-0.712-0.089     c-0.164-0.013-0.327-0.021-0.491-0.025c-0.062-0.001-0.121-0.009-0.183-0.009H8.537c-4.71,0-8.533,3.823-8.533,8.533v494.933     c0,4.71,3.823,8.533,8.533,8.533H401.07c4.71,0,8.533-3.823,8.533-8.533v-93.867h93.867c4.71,0,8.533-3.823,8.533-8.533v-204.8     C512.004,192.564,508.181,188.741,503.47,188.741z M307.204,30.14l73.267,73.267h-73.267V30.14z M392.537,495.941H17.07V18.074     h273.067v93.867c0,4.71,3.823,8.533,8.533,8.533h93.867v68.267H230.404c-4.71,0-8.533,3.823-8.533,8.533v204.8     c0,4.71,3.823,8.533,8.533,8.533h162.133V495.941z M494.937,393.541h-256V205.807h256V393.541z" fill="#ffffff" data-original="#000000" style="" class=""/>
			<path d="M366.937,222.874h-102.4c-4.71,0-8.533,3.823-8.533,8.533s3.823,8.533,8.533,8.533h42.667v128     c0,4.71,3.823,8.533,8.533,8.533s8.533-3.823,8.533-8.533v-128h42.667c4.71,0,8.533-3.823,8.533-8.533     S371.647,222.874,366.937,222.874z" fill="#ffffff" data-original="#000000" style="" class=""/>
		</g>
	</g>
</g>
<g xmlns="http://www.w3.org/2000/svg">
</g>
<g xmlns="http://www.w3.org/2000/svg">
</g>
<g xmlns="http://www.w3.org/2000/svg">
</g>
<g xmlns="http://www.w3.org/2000/svg">
</g>
<g xmlns="http://www.w3.org/2000/svg">
</g>
<g xmlns="http://www.w3.org/2000/svg">
</g>
<g xmlns="http://www.w3.org/2000/svg">
</g>
<g xmlns="http://www.w3.org/2000/svg">
</g>
<g xmlns="http://www.w3.org/2000/svg">
</g>
<g xmlns="http://www.w3.org/2000/svg">
</g>
<g xmlns="http://www.w3.org/2000/svg">
</g>
<g xmlns="http://www.w3.org/2000/svg">
</g>
<g xmlns="http://www.w3.org/2000/svg">
</g>
<g xmlns="http://www.w3.org/2000/svg">
</g>
<g xmlns="http://www.w3.org/2000/svg">
</g>
</g></svg>
