<?xml version="1.0"?>
<svg xmlns="http://www.w3.org/2000/svg" xmlns:xlink="http://www.w3.org/1999/xlink" xmlns:svgjs="http://svgjs.com/svgjs" version="1.1" width="512" height="512" x="0" y="0" viewBox="0 0 512 512" style="enable-background:new 0 0 512 512" xml:space="preserve" class=""><g>
<g xmlns="http://www.w3.org/2000/svg">
	<g>
		<g>
			<path d="M375.467,264.533c0,23.526,19.14,42.667,42.667,42.667c14.114,0,25.6,11.486,25.6,25.6c0,14.114-11.486,25.6-25.6,25.6     s-25.6-11.486-25.6-25.6c0-4.71-3.814-8.533-8.533-8.533c-4.719,0-8.533,3.823-8.533,8.533c0,23.526,19.14,42.667,42.667,42.667     c23.526,0,42.667-19.14,42.667-42.667c0-23.526-19.14-42.667-42.667-42.667c-14.114,0-25.6-11.486-25.6-25.6     s11.486-25.6,25.6-25.6s25.6,11.486,25.6,25.6c0,4.71,3.814,8.533,8.533,8.533c4.719,0,8.533-3.823,8.533-8.533     c0-23.526-19.14-42.667-42.667-42.667C394.607,221.867,375.467,241.007,375.467,264.533z" fill="#ffffff" data-original="#000000" style="" class=""/>
			<path d="M503.467,187.733H409.6v-76.8c0-0.089-0.011-0.176-0.013-0.265c-0.004-0.111-0.009-0.222-0.017-0.333     c-0.024-0.343-0.063-0.682-0.126-1.012c-0.004-0.022-0.006-0.044-0.01-0.066c-0.075-0.376-0.18-0.739-0.302-1.095     c-0.022-0.065-0.047-0.128-0.07-0.192c-0.129-0.349-0.275-0.689-0.447-1.014c-0.005-0.009-0.008-0.018-0.013-0.027     c-0.182-0.342-0.391-0.667-0.617-0.979c-0.039-0.054-0.08-0.108-0.121-0.161c-0.246-0.324-0.508-0.634-0.796-0.92L304.734,2.535     c-0.281-0.285-0.587-0.544-0.906-0.787c-0.062-0.047-0.124-0.095-0.187-0.14c-0.306-0.22-0.623-0.425-0.958-0.604     c-0.019-0.01-0.038-0.018-0.057-0.027c-0.319-0.167-0.651-0.31-0.992-0.437c-0.062-0.023-0.123-0.046-0.186-0.068     c-0.704-0.243-1.449-0.394-2.223-0.444c-0.08-0.005-0.16-0.009-0.24-0.012C298.878,0.012,298.774,0,298.667,0H8.533     C3.814,0,0,3.823,0,8.533v494.933C0,508.177,3.814,512,8.533,512h392.533c4.719,0,8.533-3.823,8.533-8.533V409.6h93.867     c4.719,0,8.533-3.823,8.533-8.533v-204.8C512,191.556,508.186,187.733,503.467,187.733z M307.2,29.133l73.267,73.267H307.2     V29.133z M392.533,494.933H17.067V17.067h273.067v93.867c0,4.71,3.814,8.533,8.533,8.533h93.867v68.267H230.4     c-4.719,0-8.533,3.823-8.533,8.533v204.8c0,4.71,3.814,8.533,8.533,8.533h162.133V494.933z M494.933,392.533h-256V204.8h256     V392.533z" fill="#ffffff" data-original="#000000" style="" class=""/>
			<path d="M332.8,221.867c-4.719,0-8.533,3.823-8.533,8.533v102.4c0,9.412-7.654,17.067-17.067,17.067s-17.067-7.654-17.067-17.067     c0-4.71-3.814-8.533-8.533-8.533c-4.719,0-8.533,3.823-8.533,8.533c0,18.825,15.309,34.133,34.133,34.133     s34.133-15.309,34.133-34.133V230.4C341.333,225.69,337.519,221.867,332.8,221.867z" fill="#ffffff" data-original="#000000" style="" class=""/>
		</g>
	</g>
</g>
<g xmlns="http://www.w3.org/2000/svg">
</g>
<g xmlns="http://www.w3.org/2000/svg">
</g>
<g xmlns="http://www.w3.org/2000/svg">
</g>
<g xmlns="http://www.w3.org/2000/svg">
</g>
<g xmlns="http://www.w3.org/2000/svg">
</g>
<g xmlns="http://www.w3.org/2000/svg">
</g>
<g xmlns="http://www.w3.org/2000/svg">
</g>
<g xmlns="http://www.w3.org/2000/svg">
</g>
<g xmlns="http://www.w3.org/2000/svg">
</g>
<g xmlns="http://www.w3.org/2000/svg">
</g>
<g xmlns="http://www.w3.org/2000/svg">
</g>
<g xmlns="http://www.w3.org/2000/svg">
</g>
<g xmlns="http://www.w3.org/2000/svg">
</g>
<g xmlns="http://www.w3.org/2000/svg">
</g>
<g xmlns="http://www.w3.org/2000/svg">
</g>
</g></svg>
