<?xml version="1.0" standalone="no"?>
<!DOCTYPE svg PUBLIC "-//W3C//DTD SVG 20010904//EN"
 "http://www.w3.org/TR/2001/REC-SVG-20010904/DTD/svg10.dtd">
<svg version="1.0" xmlns="http://www.w3.org/2000/svg"
 width="64.000000pt" height="64.000000pt" viewBox="0 0 64.000000 64.000000"
 preserveAspectRatio="xMidYMid meet">

<g transform="translate(0.000000,64.000000) scale(0.100000,-0.100000)"
fill="#ffffff" stroke="none">
<path d="M232 546 c-118 -39 -210 -161 -200 -266 2 -27 7 -35 23 -35 15 0 21
8 23 33 2 24 10 35 28 42 25 10 33 45 12 53 -9 3 -7 12 8 33 17 23 28 28 53
26 28 -3 31 0 31 23 0 18 7 28 26 35 38 15 48 12 59 -12 6 -13 17 -23 25 -23
8 0 19 10 25 23 11 24 21 27 59 12 19 -7 26 -17 26 -35 0 -23 3 -26 31 -23 25
2 36 -3 53 -26 15 -21 17 -30 9 -33 -22 -8 -14 -43 11 -53 18 -7 26 -18 28
-42 2 -25 8 -33 23 -33 18 0 20 6 19 55 -2 95 -69 191 -162 233 -58 25 -154
31 -210 13z"/>
<path d="M302 338 c-7 -7 -12 -31 -12 -55 0 -32 -6 -48 -25 -67 -50 -50 -15
-136 55 -136 70 0 105 86 55 136 -19 19 -25 35 -25 67 0 38 -13 67 -30 67 -3
0 -11 -5 -18 -12z m38 -164 c11 -12 10 -18 -3 -32 -16 -15 -18 -15 -34 0 -13
14 -14 20 -3 32 7 9 16 16 20 16 4 0 13 -7 20 -16z"/>
</g>
</svg>
