<?xml version="1.0" standalone="no"?>
<!DOCTYPE svg PUBLIC "-//W3C//DTD SVG 20010904//EN"
 "http://www.w3.org/TR/2001/REC-SVG-20010904/DTD/svg10.dtd">
<svg version="1.0" xmlns="http://www.w3.org/2000/svg"
 width="64.000000pt" height="64.000000pt" viewBox="0 0 64.000000 64.000000"
 preserveAspectRatio="xMidYMid meet">

<g transform="translate(0.000000,64.000000) scale(0.100000,-0.100000)"
fill="#ffffff" stroke="none">
<path d="M300 540 l0 -100 -56 0 -57 0 27 25 c34 32 35 77 1 110 -40 41 -96
30 -124 -23 -14 -27 -7 -58 22 -89 l20 -23 -37 0 c-28 0 -45 -7 -67 -29 -28
-29 -29 -32 -29 -135 l0 -106 35 0 35 0 0 -85 0 -85 95 0 95 0 0 165 c0 158 1
165 20 165 17 0 20 -7 20 -40 l0 -40 75 0 75 0 0 -105 0 -105 -35 0 c-28 0
-35 -4 -35 -20 0 -19 7 -20 90 -20 83 0 90 1 90 20 0 16 -7 20 -35 20 l-35 0
0 105 0 105 75 0 75 0 0 195 0 195 -170 0 -170 0 0 -100z m300 -95 l0 -155
-130 0 c-123 0 -130 1 -130 20 0 17 7 20 45 20 l45 0 0 45 c0 43 4 49 63 104
49 47 59 62 50 72 -10 10 -27 0 -82 -49 -47 -42 -78 -62 -95 -62 -26 0 -26 1
-26 80 l0 80 130 0 130 0 0 -155z m-405 81 c0 -36 -27 -56 -52 -40 -40 25 -20
77 26 72 21 -2 26 -8 26 -32z m195 -141 c0 -11 -18 -15 -82 -17 l-83 -3 -3
-163 c-2 -135 -5 -162 -17 -162 -12 0 -15 15 -15 70 0 63 -2 70 -20 70 -18 0
-20 -7 -20 -70 0 -63 -2 -70 -20 -70 -19 0 -20 7 -20 145 0 120 -2 145 -15
145 -10 0 -15 -15 -17 -57 -2 -46 -7 -59 -20 -61 -16 -3 -18 6 -18 73 0 120
-8 115 185 115 138 0 165 -2 165 -15z"/>
</g>
</svg>
